<svg width="10" height="10" viewBox="0 0 10 10" fill="none" xmlns="http://www.w3.org/2000/svg">
<path d="M1 6.5L3.806 6.5L3.2445 8.1835C3.1435 8.4875 3.1945 8.8245 3.382 9.0845C3.5695 9.3445 3.8735 9.5 4.194 9.5L5 9.5C5.1485 9.5 5.289 9.434 5.3845 9.32L7.7345 6.5L9 6.5C9.5515 6.5 10 6.0515 10 5.5L10 1C10 0.448501 9.5515 9.14465e-07 9 8.66252e-07L2.3465 2.84584e-07C2.14306 0.000675468 1.94461 0.0630801 1.77739 0.178962C1.61018 0.294844 1.48207 0.458746 1.41 0.649L0.0315013 4.3245C0.010571 4.38064 -9.77861e-05 4.44009 1.39079e-06 4.5L1.30337e-06 5.5C1.25515e-06 6.0515 0.448502 6.5 1 6.5ZM9 5.5L8 5.5L8 1L9 1L9 5.5ZM1 4.5905L2.3465 1L7 1L7 5.819L4.766 8.5L4.193 8.5L4.974 6.1585C4.99935 6.08334 5.00643 6.00322 4.99463 5.92479C4.98283 5.84635 4.95251 5.77185 4.90617 5.70748C4.85983 5.6431 4.79881 5.5907 4.72818 5.55462C4.65754 5.51854 4.57932 5.49981 4.5 5.5L1 5.5L1 4.5905Z" fill="black"/>
</svg>
