<svg width="38" height="30" viewBox="0 0 38 30" fill="none" xmlns="http://www.w3.org/2000/svg">
<path d="M0 27.8125C0 28.3927 0.230468 28.9491 0.640704 29.3593C1.05094 29.7695 1.60734 30 2.1875 30H35.3125C35.8927 30 36.4491 29.7695 36.8593 29.3593C37.2695 28.9491 37.5 28.3927 37.5 27.8125V11.25H0V27.8125ZM37.5 4.6875C37.5 4.10734 37.2695 3.55094 36.8593 3.1407C36.4491 2.73047 35.8927 2.5 35.3125 2.5H15.3781L11.6281 0H2.1875C1.60734 0 1.05094 0.230468 0.640704 0.640704C0.230468 1.05094 0 1.60734 0 2.1875V8.75H37.5V4.6875Z" fill="white"/>
</svg>
