<svg width="27" height="30" viewBox="0 0 27 30" fill="none" xmlns="http://www.w3.org/2000/svg">
<path d="M13.6243 30C14.6188 30 15.5726 29.6049 16.2758 28.9017C16.979 28.1985 17.3741 27.2447 17.3741 26.2502H9.87449C9.87449 27.2447 10.2696 28.1985 10.9728 28.9017C11.676 29.6049 12.6298 30 13.6243 30ZM15.4898 2.06215C15.516 1.80146 15.4872 1.53817 15.4054 1.28927C15.3235 1.04037 15.1904 0.811389 15.0147 0.617091C14.8389 0.422792 14.6243 0.267491 14.3849 0.161203C14.1454 0.0549148 13.8863 0 13.6243 0C13.3623 0 13.1032 0.0549148 12.8637 0.161203C12.6242 0.267491 12.4097 0.422792 12.2339 0.617091C12.0581 0.811389 11.925 1.04037 11.8432 1.28927C11.7614 1.53817 11.7326 1.80146 11.7588 2.06215C9.6396 2.49319 7.73452 3.64337 6.36611 5.31791C4.99771 6.99246 4.25007 9.08847 4.24979 11.251C4.24979 13.3097 3.31235 22.5004 0.5 24.3753H26.7486C23.9362 22.5004 22.9988 13.3097 22.9988 11.251C22.9988 6.71377 19.7739 2.92648 15.4898 2.06215Z" fill="white"/>
</svg>
