<svg width="12" height="15" viewBox="0 0 12 15" fill="none" xmlns="http://www.w3.org/2000/svg">
<path d="M5.35714 6.16071V0H0.401786C0.295226 0 0.19303 0.0423308 0.11768 0.11768C0.0423308 0.19303 0 0.295226 0 0.401786V14.5982C0 14.7048 0.0423308 14.807 0.11768 14.8823C0.19303 14.9577 0.295226 15 0.401786 15H11.3839C11.4905 15 11.5927 14.9577 11.668 14.8823C11.7434 14.807 11.7857 14.7048 11.7857 14.5982V6.42857H5.625C5.55396 6.42857 5.48583 6.40035 5.4356 6.35012C5.38536 6.29988 5.35714 6.23175 5.35714 6.16071Z" fill="black"/>
<path d="M6.42857 0.324442V5.22321C6.42857 5.25873 6.44268 5.2928 6.4678 5.31792C6.49291 5.34303 6.52698 5.35714 6.5625 5.35714H11.4613C11.4745 5.35715 11.4874 5.35324 11.4985 5.34591C11.5095 5.33857 11.5181 5.32814 11.5231 5.31592C11.5282 5.30371 11.5296 5.29026 11.527 5.27727C11.5245 5.26429 11.5181 5.25235 11.5088 5.24297L6.54275 0.276897C6.53336 0.267569 6.52142 0.26123 6.50844 0.25868C6.49546 0.25613 6.48201 0.257484 6.46979 0.26257C6.45758 0.267657 6.44714 0.276248 6.43981 0.28726C6.43247 0.298272 6.42856 0.31121 6.42857 0.324442Z" fill="black"/>
</svg>
