<svg width="15" height="12" viewBox="0 0 15 12" fill="none" xmlns="http://www.w3.org/2000/svg">
<path d="M0 11.125C0 11.3571 0.0921872 11.5796 0.256282 11.7437C0.420376 11.9078 0.642936 12 0.875 12H14.125C14.3571 12 14.5796 11.9078 14.7437 11.7437C14.9078 11.5796 15 11.3571 15 11.125V4.5H0V11.125ZM15 1.875C15 1.64294 14.9078 1.42038 14.7437 1.25628C14.5796 1.09219 14.3571 1 14.125 1H6.15125L4.65125 0H0.875C0.642936 0 0.420376 0.0921873 0.256282 0.256282C0.0921872 0.420376 0 0.642936 0 0.875V3.5H15V1.875Z" fill="black"/>
</svg>
