<svg width="10" height="10" viewBox="0 0 10 10" fill="none" xmlns="http://www.w3.org/2000/svg">
<path d="M9 3H6.194L6.7555 1.3165C6.8565 1.0125 6.8055 0.6755 6.618 0.4155C6.4305 0.1555 6.1265 0 5.806 0H5C4.8515 0 4.711 0.0659999 4.6155 0.18L2.2655 3H1C0.4485 3 0 3.4485 0 4V8.5C0 9.0515 0.4485 9.5 1 9.5H7.6535C7.85694 9.49932 8.05539 9.43692 8.22261 9.32104C8.38982 9.20516 8.51793 9.04125 8.59 8.851L9.9685 5.1755C9.98943 5.11936 10.0001 5.05991 10 5V4C10 3.4485 9.5515 3 9 3ZM1 4H2V8.5H1V4ZM9 4.9095L7.6535 8.5H3V3.681L5.234 1H5.807L5.026 3.3415C5.00065 3.41666 4.99357 3.49678 5.00537 3.57521C5.01717 3.65365 5.04749 3.72814 5.09383 3.79252C5.14017 3.8569 5.20119 3.9093 5.27182 3.94538C5.34246 3.98146 5.42068 4.00019 5.5 4H9V4.9095Z" fill="currentColor"/>
</svg>
