<svg width="266" height="48" viewBox="0 0 266 48" fill="none" xmlns="http://www.w3.org/2000/svg">
  <path d="M0.85 38V3.1H17.35C18.9833 3.1 20.45 3.38333 21.75 3.95C23.05 4.48333 24.15 5.23333 25.05 6.2C25.9833 7.16666 26.7 8.35 27.2 9.75C27.7 11.1167 27.95 12.6167 27.95 14.25C27.95 15.9167 27.7 17.4333 27.2 18.8C26.7 20.1667 25.9833 21.3333 25.05 22.3C24.15 23.2667 23.05 24.0333 21.75 24.6C20.45 25.1333 18.9833 25.4 17.35 25.4H8.45V38H0.85ZM8.45 18.8H16.45C17.5833 18.8 18.4667 18.5167 19.1 17.95C19.7667 17.35 20.1 16.4833 20.1 15.35V13.15C20.1 12.0167 19.7667 11.1667 19.1 10.6C18.4667 10 17.5833 9.7 16.45 9.7H8.45V18.8ZM32.7742 38V11.75H40.1742V17.45H40.4242C40.5576 16.7167 40.7909 16.0167 41.1242 15.35C41.4576 14.65 41.8909 14.0333 42.4242 13.5C42.9909 12.9667 43.6576 12.55 44.4242 12.25C45.1909 11.9167 46.0909 11.75 47.1242 11.75H48.4242V18.65H46.5742C44.4076 18.65 42.7909 18.9333 41.7242 19.5C40.6909 20.0667 40.1742 21.1167 40.1742 22.65V38H32.7742ZM63.3949 38.6C61.4616 38.6 59.7283 38.2833 58.1949 37.65C56.6949 37.0167 55.4116 36.1 54.3449 34.9C53.3116 33.7 52.5116 32.25 51.9449 30.55C51.3783 28.85 51.0949 26.95 51.0949 24.85C51.0949 22.75 51.3783 20.85 51.9449 19.15C52.5116 17.45 53.3116 16.0167 54.3449 14.85C55.4116 13.65 56.6949 12.7333 58.1949 12.1C59.7283 11.4667 61.4616 11.15 63.3949 11.15C65.3283 11.15 67.0449 11.4667 68.5449 12.1C70.0783 12.7333 71.3616 13.65 72.3949 14.85C73.4616 16.0167 74.2783 17.45 74.8449 19.15C75.4116 20.85 75.6949 22.75 75.6949 24.85C75.6949 26.95 75.4116 28.85 74.8449 30.55C74.2783 32.25 73.4616 33.7 72.3949 34.9C71.3616 36.1 70.0783 37.0167 68.5449 37.65C67.0449 38.2833 65.3283 38.6 63.3949 38.6ZM63.3949 32.75C64.8616 32.75 65.9949 32.3 66.7949 31.4C67.5949 30.5 67.9949 29.2167 67.9949 27.55V22.2C67.9949 20.5333 67.5949 19.25 66.7949 18.35C65.9949 17.45 64.8616 17 63.3949 17C61.9283 17 60.7949 17.45 59.9949 18.35C59.1949 19.25 58.7949 20.5333 58.7949 22.2V27.55C58.7949 29.2167 59.1949 30.5 59.9949 31.4C60.7949 32.3 61.9283 32.75 63.3949 32.75ZM80.9676 11.75H88.3676V40.8C88.3676 43.1333 87.7842 44.9167 86.6176 46.15C85.4509 47.3833 83.5676 48 80.9676 48H77.0676V42.25H80.9676V11.75ZM84.6676 8.95C83.1676 8.95 82.0676 8.61667 81.3676 7.95C80.7009 7.25 80.3676 6.36666 80.3676 5.3V4.2C80.3676 3.13333 80.7009 2.26667 81.3676 1.6C82.0676 0.899999 83.1676 0.549999 84.6676 0.549999C86.1676 0.549999 87.2509 0.899999 87.9176 1.6C88.6176 2.26667 88.9676 3.13333 88.9676 4.2V5.3C88.9676 6.36666 88.6176 7.25 87.9176 7.95C87.2509 8.61667 86.1676 8.95 84.6676 8.95ZM106.224 38.6C104.224 38.6 102.441 38.2833 100.874 37.65C99.3076 36.9833 97.9742 36.0667 96.8742 34.9C95.8076 33.7 94.9909 32.25 94.4242 30.55C93.8909 28.85 93.6242 26.95 93.6242 24.85C93.6242 22.7833 93.8909 20.9167 94.4242 19.25C94.9576 17.55 95.7409 16.1 96.7742 14.9C97.8409 13.7 99.1409 12.7833 100.674 12.15C102.208 11.4833 103.958 11.15 105.924 11.15C108.091 11.15 109.941 11.5167 111.474 12.25C113.041 12.9833 114.308 13.9667 115.274 15.2C116.274 16.4333 116.991 17.8667 117.424 19.5C117.891 21.1 118.124 22.7833 118.124 24.55V26.75H101.274V27.15C101.274 28.8833 101.741 30.2667 102.674 31.3C103.608 32.3 105.074 32.8 107.074 32.8C108.608 32.8 109.858 32.5 110.824 31.9C111.791 31.2667 112.691 30.5167 113.524 29.65L117.224 34.25C116.058 35.6167 114.524 36.6833 112.624 37.45C110.758 38.2167 108.624 38.6 106.224 38.6ZM106.074 16.6C104.574 16.6 103.391 17.1 102.524 18.1C101.691 19.0667 101.274 20.3667 101.274 22V22.4H110.474V21.95C110.474 20.35 110.108 19.0667 109.374 18.1C108.674 17.1 107.574 16.6 106.074 16.6ZM133.95 38.6C131.984 38.6 130.234 38.2833 128.7 37.65C127.167 36.9833 125.884 36.0667 124.85 34.9C123.817 33.7 123.034 32.25 122.5 30.55C121.967 28.85 121.7 26.95 121.7 24.85C121.7 22.75 121.967 20.8667 122.5 19.2C123.034 17.5 123.817 16.05 124.85 14.85C125.884 13.65 127.167 12.7333 128.7 12.1C130.234 11.4667 131.984 11.15 133.95 11.15C136.617 11.15 138.834 11.75 140.6 12.95C142.4 14.15 143.684 15.8333 144.45 18L138.45 20.6C138.217 19.6 137.734 18.75 137 18.05C136.267 17.35 135.25 17 133.95 17C132.45 17 131.317 17.5 130.55 18.5C129.784 19.4667 129.4 20.7833 129.4 22.45V27.35C129.4 29.0167 129.784 30.3333 130.55 31.3C131.317 32.2667 132.45 32.75 133.95 32.75C135.284 32.75 136.334 32.4 137.1 31.7C137.9 30.9667 138.484 30.0167 138.85 28.85L144.6 31.35C143.734 33.85 142.384 35.6833 140.55 36.85C138.75 38.0167 136.55 38.6 133.95 38.6ZM158.38 38C155.814 38 153.864 37.35 152.53 36.05C151.23 34.75 150.58 32.85 150.58 30.35V17.5H146.88V11.75H148.73C149.73 11.75 150.414 11.5167 150.78 11.05C151.147 10.55 151.33 9.85 151.33 8.95V4.65H157.98V11.75H163.18V17.5H157.98V32.25H162.78V38H158.38ZM191.688 38.6C187.121 38.6 183.738 37.0167 181.538 33.85C179.338 30.6833 178.238 26.25 178.238 20.55C178.238 14.85 179.338 10.4167 181.538 7.25C183.738 4.08333 187.121 2.5 191.688 2.5C196.254 2.5 199.638 4.08333 201.838 7.25C204.038 10.4167 205.138 14.85 205.138 20.55C205.138 26.25 204.038 30.6833 201.838 33.85C199.638 37.0167 196.254 38.6 191.688 38.6ZM191.688 32.25C193.688 32.25 195.071 31.5167 195.838 30.05C196.604 28.5833 196.988 26.5167 196.988 23.85V17.25C196.988 14.5833 196.604 12.5167 195.838 11.05C195.071 9.58333 193.688 8.85 191.688 8.85C189.688 8.85 188.304 9.58333 187.538 11.05C186.771 12.5167 186.388 14.5833 186.388 17.25V23.85C186.388 26.5167 186.771 28.5833 187.538 30.05C188.304 31.5167 189.688 32.25 191.688 32.25ZM234.218 38H209.518V31.15L220.268 21.95C221.235 21.1167 222.051 20.3667 222.718 19.7C223.385 19 223.918 18.3333 224.318 17.7C224.751 17.0333 225.051 16.3833 225.218 15.75C225.418 15.1167 225.518 14.4333 225.518 13.7V13C225.518 12.3333 225.385 11.75 225.118 11.25C224.851 10.75 224.501 10.3333 224.068 10C223.635 9.66666 223.135 9.41666 222.568 9.25C222.035 9.08333 221.485 9 220.918 9C220.085 9 219.351 9.13333 218.718 9.4C218.118 9.66667 217.585 10.0333 217.118 10.5C216.685 10.9333 216.318 11.45 216.018 12.05C215.718 12.6167 215.485 13.2333 215.318 13.9L208.768 11.4C209.168 10.2 209.718 9.06667 210.418 8C211.118 6.9 211.985 5.95 213.018 5.15C214.085 4.31667 215.335 3.66666 216.768 3.2C218.201 2.73333 219.818 2.5 221.618 2.5C223.518 2.5 225.201 2.76667 226.668 3.3C228.135 3.83333 229.368 4.56666 230.368 5.5C231.401 6.43333 232.185 7.55 232.718 8.85C233.251 10.1167 233.518 11.5 233.518 13C233.518 14.5 233.268 15.8667 232.768 17.1C232.268 18.3333 231.585 19.5 230.718 20.6C229.885 21.6667 228.901 22.6833 227.768 23.65C226.635 24.6167 225.451 25.6 224.218 26.6L217.718 31.7H234.218V38ZM241.348 38V31.95H250.748V8.55H250.298L243.198 17.85L238.398 14.1L246.748 3.1H258.248V31.95H265.648V38H241.348Z" fill="white"/>
</svg>
