<svg width="34" height="30" viewBox="0 0 34 30" fill="none" xmlns="http://www.w3.org/2000/svg">
<path d="M4.4315 21.0087H6.48892V4.45602C6.4897 1.98943 8.46829 0 10.9214 0H28.8872C28.966 0 29.0456 0 29.1245 0.0396332C31.5776 0.31862 33.3189 2.50699 33.0816 4.97358C32.8444 7.04228 31.2221 8.71386 29.1245 8.95244C29.0456 8.95244 28.966 8.99207 28.8872 8.99207H28.6499V25.544V25.5836C28.6105 28.0106 26.6319 30 24.2182 30H4.74916H4.63013H4.43227C1.97913 30 0.000537872 28.0106 0.000537872 25.544C-0.0396538 22.9981 1.97835 21.0087 4.4315 21.0087ZM28.6499 6.56512V6.52549C29.7969 6.52549 30.7073 5.61004 30.7073 4.45602C30.7073 3.30199 29.7969 2.38732 28.6499 2.38732H14.8392C15.5116 3.70065 15.5116 5.25179 14.8392 6.56512H28.6499ZM9.65544 22.8388H25.8799V20.4515H9.65544V22.8388ZM9.65544 18.0642H25.8799V15.6769H9.65544V18.0642ZM9.65544 13.2896H25.8799V10.9022H9.65544V13.2896ZM4.39208 27.5334C5.53982 27.5334 6.44951 26.618 6.44951 25.4647V23.396H4.39208C3.24434 23.396 2.33465 24.3115 2.33465 25.4647C2.33465 26.6187 3.24434 27.5334 4.39208 27.5334Z" fill="white"/>
</svg>
