<svg width="40" height="40" viewBox="0 0 40 40" fill="none" xmlns="http://www.w3.org/2000/svg">
  <path d="M0 19.1667C0 10.1667 0 5.58333 2.83333 2.83333C5.66667 0.0833334 10.1667 0 19.1667 0H20.8333C29.8333 0 34.4167 0 37.1667 2.83333C40 5.58333 40 10.1667 40 19.1667V20.8333C40 29.8333 40 34.4167 37.1667 37.1667C34.4167 40 29.8333 40 20.8333 40H19.1667C10.1667 40 5.58333 40 2.83333 37.1667C0 34.4167 0 29.8333 0 20.8333V19.1667Z" fill="black"/>
  <path d="M10.8332 12.5H7.9165C7.08317 12.5 6.9165 12.9167 6.9165 13.3333C6.9165 14.0833 7.9165 17.9167 11.4998 23C13.9165 26.5 17.3332 28.3333 20.4165 28.3333C22.2498 28.3333 22.4998 27.9167 22.4998 27.1667V24.5833C22.4998 23.75 22.6665 23.5833 23.2498 23.5833C23.6665 23.5833 24.4165 23.8333 26.1665 25.5C28.1665 27.5 28.4998 28.3333 29.5832 28.3333H32.4998C33.3332 28.3333 33.7498 27.9167 33.4998 27.0833C33.2498 26.25 32.3332 25.0833 30.9998 23.6667C30.3332 22.8333 29.3332 22 28.9998 21.5833C28.5832 21 28.6665 20.75 28.9998 20.25C28.9998 20.25 32.5832 15.25 32.9165 13.5833C33.0832 13 32.9165 12.5 31.9998 12.5H29.1665C28.4165 12.5 28.0832 12.9167 27.9165 13.3333C27.9165 13.3333 26.4165 16.9167 24.3332 19.3333C23.6665 20 23.3332 20.25 22.9998 20.25C22.8332 20.25 22.5832 20 22.5832 19.4167V13.6667C22.5832 12.9167 22.3332 12.5833 21.7498 12.5833H17.1665C16.6665 12.5833 16.4165 12.9167 16.4165 13.25C16.4165 13.9167 17.4998 14.0833 17.5832 16.0833V20.4167C17.5832 21.3333 17.4165 21.5 17.0832 21.5C16.0832 21.5 13.6665 17.8333 12.2498 13.75C11.8332 12.8333 11.5832 12.5 10.8332 12.5Z" fill="white"/>
</svg>
